<svg width="13" height="16" viewBox="0 0 13 16" fill="none" xmlns="http://www.w3.org/2000/svg">
<path d="M10.8088 1.80026C9.75558 0.773661 8.298 0.208252 6.7046 0.208252C4.2706 0.208252 2.77359 1.22127 1.94636 2.07104C0.926868 3.11828 0.342255 4.5088 0.342255 5.88615C0.342255 7.6155 1.05469 8.94284 2.24775 9.43664C2.32785 9.46996 2.40844 9.48675 2.48745 9.48675C2.73914 9.48675 2.93857 9.31954 3.00766 9.05132C3.04793 8.89744 3.14125 8.51783 3.18182 8.35302C3.26868 8.02758 3.1985 7.87104 3.00909 7.64441C2.66403 7.22987 2.50334 6.73967 2.50334 6.10171C2.50334 4.20676 3.89307 2.1928 6.4688 2.1928C8.51253 2.1928 9.78208 3.37217 9.78208 5.27063C9.78208 6.46864 9.52792 7.57812 9.06629 8.39481C8.74551 8.96228 8.18143 9.63872 7.31547 9.63872C6.94099 9.63872 6.60461 9.48254 6.39235 9.21026C6.19184 8.95286 6.12576 8.62035 6.2064 8.2738C6.2975 7.88227 6.42172 7.47384 6.54194 7.079C6.7612 6.35786 6.96848 5.67675 6.96848 5.13334C6.96848 4.20385 6.40568 3.57931 5.56814 3.57931C4.50374 3.57931 3.66985 4.67696 3.66985 6.07821C3.66985 6.76543 3.84974 7.27943 3.93116 7.4768C3.79708 8.05363 3.00016 11.483 2.84899 12.1297C2.76159 12.5072 2.23507 15.4888 3.10656 15.7266C4.08573 15.9937 4.96097 13.0898 5.05005 12.7617C5.12225 12.4948 5.37488 11.4857 5.5297 10.8653C6.00238 11.3276 6.76347 11.6402 7.50404 11.6402C8.90013 11.6402 10.1557 11.0023 11.0394 9.84416C11.8965 8.72086 12.3685 7.15521 12.3685 5.43583C12.3685 4.09166 11.8 2.76652 10.8088 1.80026Z" fill="white"/>
</svg>
